{"title":"Grown.Ups.2010.CAM.Xvid-TA","uid":5653860,"size":1416265456,"categoryP":"video","categoryS":"movies","magnet":"?xt=urn:btih:eb9e57586b4c3f41e3d95da73586150b0489d326&amp;dn=Grown.Ups.2010.CAM.Xvid-TA&amp;tr=udp%3A%2F%2Ftracker.openbittorrent.com%3A80&amp;tr=udp%3A%2F%2Fopen.demonii.com%3A1337&amp;tr=udp%3A%2F%2Ftracker.coppersurfer.tk%3A6969&amp;tr=udp%3A%2F%2Fexodus.desync.com%3A6969","seeders":1,"leechers":0,"uploader":"sceneline","files":5,"time":1277723633,"description":"Grown.Ups.2010.CAM.Xvid-TA\n &lt;a href=&quot;\nhttp://www.imdb.com/title/tt1375670/&quot; rel=&quot;nofollow&quot; target=&quot;_NEW&quot;&gt;\nhttp://www.imdb.com/title/tt1375670/&lt;/a&gt;\n\nPlot:\nAfter their high school basketball coach passes away, five good friends \nand former teammates reunite for a Fourth of July holiday weekend.\n\n\nSource                           : SLUGGER (THANKS)\nComplete name                    : Grown.Ups.2010.CAM.Xvid-TA.avi\nFormat                           : AVI\nFormat/Info                      : Audio Video Interleave\nFile size                        : 1.30 GiB\nDuration                         : 1h 34mn\nOverall bit rate                 : 1 961 Kbps\nWriting library                  : VirtualDub build 32661/release\n\nVideo\nID                               : 0\nFormat                           : MPEG-4 Visual\nFormat profile                   : AdvancedSimple@L5\nFormat settings, BVOP            : Yes\nFormat settings, QPel            : No\nFormat settings, GMC             : No warppoints\nFormat settings, Matrix          : Default (H.263)\nMuxing mode                      : Packed bitstream\nCodec ID                         : XVID\nCodec ID/Hint                    : XviD\nDuration                         : 1h 34mn\nBit rate                         : 1 791 Kbps\nWidth                            : 640 pixels\nHeight                           : 352 pixels\nDisplay aspect ratio             : 16:9\nFrame rate                       : 25.000 fps\nResolution                       : 24 bits\nColorimetry                      : 4:2:0\nScan type                        : Progressive\nBits/(Pixel*Frame)               : 0.318\nStream size                      : 1.19 GiB (91%)\nWriting library                  : XviD 1.2.1 (UTC 2008-12-04)\n\nAudio\nID                               : 1\nFormat                           : MPEG Audio\nFormat version                   : Version 1\nFormat profile                   : Layer 3\nCodec ID                         : 55\nCodec ID/Hint                    : MP3\nDuration                         : 1h 34mn\nBit rate mode                    : Constant\nBit rate                         : 160 Kbps\nChannel(s)                       : 2 channels\nSampling rate                    : 44.1 KHz\nResolution                       : 16 bits\nStream size                      : 109 MiB (8%)\nAlignment                        : Split accross interleaves\nInterleave, duration             : 40 ms (1.00 video frame)\nInterleave, preload duration     : 500 ms\n\nScreens:\n\nEnjoy,\nTA-rg","torrent":{"xt":"urn:btih:eb9e57586b4c3f41e3d95da73586150b0489d326","amp;dn":"Grown.Ups.2010.CAM.Xvid-TA","amp;tr":["udp%3A%2F%2Ftracker.openbittorrent.com%3A80","udp%3A%2F%2Fopen.demonii.com%3A1337","udp%3A%2F%2Ftracker.coppersurfer.tk%3A6969","udp%3A%2F%2Fexodus.desync.com%3A6969"],"infoHash":"eb9e57586b4c3f41e3d95da73586150b0489d326","infoHashBuffer":{"type":"Buffer","data":[235,158,87,88,107,76,63,65,227,217,93,167,53,134,21,11,4,137,211,38]},"announce":[],"urlList":[]}}